<svg width="96" height="96" viewBox="0 0 48 48" fill="none" xmlns="http://www.w3.org/2000/svg">
<rect width="48" height="48" rx="24" fill="#DBEAFE"/>
<path d="M21.8789 19.5188C23.0505 18.4937 24.95 18.4937 26.1215 19.5188C27.2931 20.544 27.2931 22.206 26.1215 23.2312C25.9176 23.4096 25.6917 23.5569 25.4513 23.6733C24.7056 24.0341 24.0002 24.6716 24.0002 25.5V26.25M33 24C33 28.9706 28.9706 33 24 33C19.0294 33 15 28.9706 15 24C15 19.0294 19.0294 15 24 15C28.9706 15 33 19.0294 33 24ZM24 29.25H24.0075V29.2575H24V29.25Z" stroke="#3B82F6" stroke-width="1.5" stroke-linecap="round" stroke-linejoin="round"/>
</svg>
